<?xml version="1.0" encoding="UTF-8" standalone="no"?>
<!-- Created with Inkscape (http://www.inkscape.org/) -->

<svg
   version="1.1"
   id="svg1"
   width="205.24203"
   height="239.45309"
   viewBox="0 0 205.24204 239.45309"
   sodipodi:docname="path1.svg"
   xmlns:inkscape="http://www.inkscape.org/namespaces/inkscape"
   xmlns:sodipodi="http://sodipodi.sourceforge.net/DTD/sodipodi-0.dtd"
   xmlns="http://www.w3.org/2000/svg"
   xmlns:svg="http://www.w3.org/2000/svg">
  <defs
     id="defs1" />
  <sodipodi:namedview
     id="namedview1"
     pagecolor="#ffffff"
     bordercolor="#000000"
     borderopacity="0.25"
     inkscape:showpageshadow="2"
     inkscape:pageopacity="0.0"
     inkscape:pagecheckerboard="0"
     inkscape:deskcolor="#d1d1d1"
     inkscape:export-bgcolor="#fcfcfc00">
    <inkscape:page
       x="0"
       y="0"
       width="205.24203"
       height="239.45309"
       id="page1"
       margin="0"
       bleed="0" />
  </sodipodi:namedview>
  <g
     inkscape:groupmode="layer"
     inkscape:label="Image"
     id="g1"
     transform="translate(-204.40483,-215.10143)">
    <g
       id="g2">
      <path
         style="fill:#000000;stroke-width:0.889344"
         d="m 276.97378,452.55543 c 0,-1.68747 -0.46346,-1.90751 -5.63215,-2.67414 -6.6324,-0.98371 -10.20533,-3.59343 -11.42051,-8.34172 -0.42423,-1.65767 -0.76178,-36.78216 -0.77293,-80.43026 -0.0207,-80.9331 0.14329,-85.45093 3.71302,-102.3028 3.89888,-18.40568 12.52103,-30.94217 23.07016,-33.5437 4.05448,-0.99989 14.93627,-0.45401 18.52485,0.92928 7.05832,2.72077 10.79481,9.66925 11.67256,21.70664 0.52937,7.25961 1.66326,9.4405 5.70387,10.97061 5.20471,1.97094 12.66377,1.13797 24.32879,-2.71686 l 4.87727,-1.61174 0.52585,-4.55974 c 1.15176,-9.98708 0.68255,-14.98281 -1.76347,-18.77608 -5.91753,-9.17687 -19.76321,-14.1987 -43.31863,-15.71168 -23.38929,-1.5023 -39.64283,1.29857 -50.46085,8.69561 -18.34581,12.54432 -27.36457,27.77939 -30.06705,50.79126 -0.60213,5.12725 -1.01111,34.82164 -1.16557,84.62929 -0.13086,42.2018 -0.53196,77.66128 -0.89133,78.79884 -1.12235,3.55277 -6.31035,7.64056 -12.1322,9.55936 -7.15845,2.35932 -9.27973,4.66427 -5.55073,6.03134 1.04086,0.38158 17.1154,0.6206 36.31329,0.53996 l 34.44576,-0.14469 z m 104.83966,-0.22775 c 0.1792,-0.84594 -0.46836,-1.57159 -1.81727,-2.0364 -4.64679,-1.6012 -4.66525,-1.77506 -4.66525,-43.93257 v -38.70696 l 4.46775,-2.28522 c 17.79523,-9.10217 29.85524,-34.52826 29.84821,-62.92892 -0.003,-11.38829 -2.22785,-25.00549 -4.40886,-26.98217 -1.34225,-1.21651 -11.58287,1.38817 -20.36189,5.17902 -15.29936,6.60637 -29.94301,17.24294 -50.74153,36.85665 -8.15645,7.6918 -17.44446,15.93981 -20.64003,18.32891 -15.39535,11.51004 -28.8534,17.34352 -45.44349,19.69778 -3.53795,0.50207 -6.43264,1.17482 -6.43264,1.49502 0,1.21467 5.19058,4.4706 8.36011,5.24411 9.7797,2.3867 31.68419,-6.55238 48.87705,-19.94641 41.96477,-32.69249 67.59472,-48.52391 78.5568,-48.52391 2.72204,0 2.81906,0.10067 2.81906,2.92489 0,4.31142 -3.82135,15.55486 -7.16953,21.09465 -6.75123,11.17038 -15.68836,19.29519 -26.62589,24.20581 -6.53008,2.93179 -7.34867,3.11123 -14.16568,3.10524 -7.90149,-0.007 -11.7613,-1.14416 -18.17496,-5.35495 -1.88043,-1.23457 -3.60411,-2.07688 -3.83038,-1.87179 -0.71621,0.6491 1.57165,8.2646 3.50669,11.67251 3.8795,6.83246 13.19921,13.51973 22.93324,16.45555 l 5.34568,1.61228 v 37.19971 c 0,40.65485 0.0509,40.19365 -4.8682,44.11561 -2.53115,2.01806 -3.19864,3.52817 -2.02835,4.58882 0.31549,0.28594 6.38027,0.42698 13.47728,0.31344 11.51523,-0.18422 12.93363,-0.34785 13.18208,-1.5207 z m -31.79807,-95.63953 c -4.1622,-1.78335 -10.94579,-7.35131 -7.47016,-6.1315 5.20279,1.82597 9.52034,2.65853 13.78671,2.65853 4.82872,0 12.4618,-1.44858 15.56532,-2.95393 2.0672,-1.0027 2.60366,-1.01405 2.60366,-0.0551 0,0.41375 -0.51453,0.75227 -1.1434,0.75227 -0.62886,0 -1.60837,0.50777 -2.17668,1.12838 -0.82927,0.90562 -0.81802,1.1284 0.057,1.1284 0.66093,0 0.45581,0.42962 -0.52089,1.09098 -1.55609,1.05368 -1.54732,1.07639 0.25638,0.66452 3.89734,-0.88996 1.692,1.24249 -2.4332,2.35279 -6.45033,1.73608 -13.55907,1.49228 -18.52476,-0.63533 z m 23.65551,-1.88159 c 0,-0.67536 2.49411,-1.83846 2.98612,-1.39254 0.14215,0.12884 -0.47157,0.64745 -1.36383,1.15247 -0.89226,0.50503 -1.62229,0.61306 -1.62229,0.24007 z"
         id="path1"
         sodipodi:nodetypes="sssssssssscsssssssssscsssscscssssssssssssssssscssssssssssssssssssssss" />
      <path
         style="fill:#1b0e1c;fill-opacity:1;stroke-width:0.889344"
         d="m 276.97378,452.55543 c 0,-1.68747 -0.46346,-1.90751 -5.63215,-2.67414 -6.6324,-0.98371 -10.20533,-3.59343 -11.42051,-8.34172 -0.42423,-1.65767 -0.76178,-36.78216 -0.77293,-80.43026 -0.0207,-80.9331 0.14329,-85.45093 3.71302,-102.3028 3.89888,-18.40568 12.52103,-30.94217 23.07016,-33.5437 4.05448,-0.99989 14.93627,-0.45401 18.52485,0.92928 7.05832,2.72077 10.79481,9.66925 11.67256,21.70664 0.52937,7.25961 1.66326,9.4405 5.70387,10.97061 5.20471,1.97094 12.66377,1.13797 24.32879,-2.71686 l 4.87727,-1.61174 0.52585,-4.55974 c 1.15176,-9.98708 0.68255,-14.98281 -1.76347,-18.77608 -5.91753,-9.17687 -19.76321,-14.1987 -43.31863,-15.71168 -23.38929,-1.5023 -39.64283,1.29857 -50.46085,8.69561 -18.34581,12.54432 -27.36457,27.77939 -30.06705,50.79126 -0.60213,5.12725 -1.01111,34.82164 -1.16557,84.62929 -0.13086,42.2018 -0.53196,77.66128 -0.89133,78.79884 -1.12235,3.55277 -6.31035,7.64056 -12.1322,9.55936 -7.15845,2.35932 -9.27973,4.66427 -5.55073,6.03134 1.04086,0.38158 17.1154,0.6206 36.31329,0.53996 l 34.44576,-0.14469 z m 104.83966,-0.22775 c 0.1792,-0.84594 -0.46836,-1.57159 -1.81727,-2.0364 -4.64679,-1.6012 -4.66525,-1.77506 -4.66525,-43.93257 v -38.70696 l 4.46775,-2.28522 c 17.79523,-9.10217 29.85524,-34.52826 29.84821,-62.92892 -0.003,-11.38829 -2.22785,-25.00549 -4.40886,-26.98217 -1.34225,-1.21651 -11.58287,1.38817 -20.36189,5.17902 -15.29936,6.60637 -29.94301,17.24294 -50.74153,36.85665 -8.15645,7.6918 -17.44446,15.93981 -20.64003,18.32891 -15.39535,11.51004 -28.8534,17.34352 -45.44349,19.69778 -3.53795,0.50207 -6.43264,1.17482 -6.43264,1.49502 0,1.21467 5.19058,4.4706 8.36011,5.24411 9.7797,2.3867 31.68419,-6.55238 48.87705,-19.94641 41.96477,-32.69249 67.59472,-48.52391 78.5568,-48.52391 2.72204,0 2.81906,0.10067 2.81906,2.92489 0,4.31142 -3.82135,15.55486 -7.16953,21.09465 -6.75123,11.17038 -15.68836,19.29519 -26.62589,24.20581 -6.53008,2.93179 -7.34867,3.11123 -14.16568,3.10524 -7.90149,-0.007 -11.7613,-1.14416 -18.17496,-5.35495 -1.88043,-1.23457 -3.60411,-2.07688 -3.83038,-1.87179 -0.71621,0.6491 1.57165,8.2646 3.50669,11.67251 3.8795,6.83246 13.19921,13.51973 22.93324,16.45555 l 5.34568,1.61228 v 37.19971 c 0,40.65485 0.0509,40.19365 -4.8682,44.11561 -2.53115,2.01806 -3.19864,3.52817 -2.02835,4.58882 0.31549,0.28594 6.38027,0.42698 13.47728,0.31344 11.51523,-0.18422 12.93363,-0.34785 13.18208,-1.5207 z m -31.79807,-95.63953 c -4.1622,-1.78335 -10.94579,-7.35131 -7.47016,-6.1315 5.20279,1.82597 9.52034,2.65853 13.78671,2.65853 4.82872,0 12.4618,-1.44858 15.56532,-2.95393 2.0672,-1.0027 2.60366,-1.01405 2.60366,-0.0551 0,0.41375 -0.51453,0.75227 -1.1434,0.75227 -0.62886,0 -1.60837,0.50777 -2.17668,1.12838 -0.82927,0.90562 -0.81802,1.1284 0.057,1.1284 0.66093,0 0.45581,0.42962 -0.52089,1.09098 -1.55609,1.05368 -1.54732,1.07639 0.25638,0.66452 3.89734,-0.88996 1.692,1.24249 -2.4332,2.35279 -6.45033,1.73608 -13.55907,1.49228 -18.52476,-0.63533 z m 23.65551,-1.88159 c 0,-0.67536 2.49411,-1.83846 2.98612,-1.39254 0.14215,0.12884 -0.47157,0.64745 -1.36383,1.15247 -0.89226,0.50503 -1.62229,0.61306 -1.62229,0.24007 z"
         id="path2"
         sodipodi:nodetypes="sssssssssscsssssssssscsssscscssssssssssssssssscssssssssssssssssssssss"
         inkscape:export-filename="path2.png"
         inkscape:export-xdpi="96"
         inkscape:export-ydpi="96" />
    </g>
  </g>
</svg>
